<svg width="1024" height="1024" viewBox="0 0 1024 1024" fill="none" xmlns="http://www.w3.org/2000/svg">
<g filter="url(#filter0_d_210_227)">
<path d="M175.761 383.912L305.671 733.163H699.223L855.88 383.912L515.82 602.477L175.761 383.912Z" fill="#24A9E7"/>
<path d="M554.146 208.992C530.443 195.252 501.198 195.252 477.495 208.992L175.761 383.912L515.82 602.477L855.88 383.912L554.146 208.992Z" fill="url(#paint0_radial_210_227)"/>
<g filter="url(#filter1_d_210_227)">
<path d="M764.178 385.461H267.462C246.36 385.461 229.253 402.567 229.253 423.67V622.357C229.253 643.459 246.36 660.566 267.462 660.566H764.178C785.277 660.566 802.387 643.459 802.387 622.357V423.67C802.387 402.567 785.277 385.461 764.178 385.461Z" fill="url(#paint1_radial_210_227)"/>
</g>
<path fill-rule="evenodd" clip-rule="evenodd" d="M855.88 782.833C855.88 803.939 838.77 821.042 817.671 821.042H213.97C192.868 821.042 175.761 803.939 175.761 782.833V383.912L507.2 596.937C512.847 600.567 519.351 602.644 526.057 602.961L819.475 616.816C839.855 617.778 855.88 634.581 855.88 654.983V782.833Z" fill="url(#paint2_radial_210_227)"/>
<path d="M826.444 802.128C839.16 810.297 855.88 801.165 855.88 786.058V383.912L515.82 602.477L826.444 802.128Z" fill="url(#paint3_radial_210_227)"/>
</g>
<defs>
<filter id="filter0_d_210_227" x="165.761" y="190.687" width="700.119" height="642.355" filterUnits="userSpaceOnUse" color-interpolation-filters="sRGB">
<feFlood flood-opacity="0" result="BackgroundImageFix"/>
<feColorMatrix in="SourceAlpha" type="matrix" values="0 0 0 0 0 0 0 0 0 0 0 0 0 0 0 0 0 0 127 0" result="hardAlpha"/>
<feOffset dy="2"/>
<feGaussianBlur stdDeviation="5"/>
<feComposite in2="hardAlpha" operator="out"/>
<feColorMatrix type="matrix" values="0 0 0 0 0 0 0 0 0 0 0 0 0 0 0 0 0 0 0.05 0"/>
<feBlend mode="normal" in2="BackgroundImageFix" result="effect1_dropShadow_210_227"/>
<feBlend mode="normal" in="SourceGraphic" in2="effect1_dropShadow_210_227" result="shape"/>
</filter>
<filter id="filter1_d_210_227" x="219.253" y="375.461" width="593.135" height="295.104" filterUnits="userSpaceOnUse" color-interpolation-filters="sRGB">
<feFlood flood-opacity="0" result="BackgroundImageFix"/>
<feColorMatrix in="SourceAlpha" type="matrix" values="0 0 0 0 0 0 0 0 0 0 0 0 0 0 0 0 0 0 127 0" result="hardAlpha"/>
<feOffset/>
<feGaussianBlur stdDeviation="5"/>
<feComposite in2="hardAlpha" operator="out"/>
<feColorMatrix type="matrix" values="0 0 0 0 0 0 0 0 0 0 0 0 0 0 0 0 0 0 0.25 0"/>
<feBlend mode="normal" in2="BackgroundImageFix" result="effect1_dropShadow_210_227"/>
<feBlend mode="normal" in="SourceGraphic" in2="effect1_dropShadow_210_227" result="shape"/>
</filter>
<radialGradient id="paint0_radial_210_227" cx="0" cy="0" r="1" gradientUnits="userSpaceOnUse" gradientTransform="translate(512 525.799) rotate(90) scale(345.607 430.196)">
<stop stop-color="#0E4F97"/>
<stop offset="1" stop-color="#0868B5"/>
</radialGradient>
<radialGradient id="paint1_radial_210_227" cx="0" cy="0" r="1" gradientUnits="userSpaceOnUse" gradientTransform="translate(511.999 660.566) rotate(-90) scale(275.104 573.134)">
<stop stop-color="#C0C0C0"/>
<stop offset="1" stop-color="#F1F2F3"/>
</radialGradient>
<radialGradient id="paint2_radial_210_227" cx="0" cy="0" r="1" gradientUnits="userSpaceOnUse" gradientTransform="translate(832.955 821.042) rotate(-154.612) scale(748.593 802.709)">
<stop stop-color="#0987DD"/>
<stop offset="1" stop-color="#29AEE9"/>
</radialGradient>
<radialGradient id="paint3_radial_210_227" cx="0" cy="0" r="1" gradientUnits="userSpaceOnUse" gradientTransform="translate(844.417 798.116) rotate(-122.137) scale(351.958 547.602)">
<stop stop-color="#16A2DF"/>
<stop offset="1" stop-color="#45CAEE"/>
</radialGradient>
</defs>
</svg>
